{
  "accessors": [
    {
      "bufferView": 2,
      "componentType": 5126,
      "count": 100,
      "max": [
        -82.95014953613281,
        174.2400360107422,
        522.1347045898438
      ],
      "min": [
        -121.77435302734375,
        161.938232421875,
        -505.3367004394531
      ],
      "type": "VEC3"
    },
    {
      "bufferView": 2,
      "byteOffset": 1200,
      "componentType": 5126,
      "count": 100,
      "max": [
        0.8750448226928711,
        -0.2685324251651764,
        0.9632704854011536
      ],
      "min": [
        -0.8771259188652039,
        -0.9999977350234985,
        -0.9632704854011536
      ],
      "type": "VEC3"
    },
    {
      "bufferView": 1,
      "componentType": 5126,
      "count": 100,
      "max": [
        0.625,
        0.4737829864025116
      ],
      "min": [
        0.625,
        0.2762170135974884
      ],
      "type": "VEC2"
    },
    {
      "bufferView": 0,
      "componentType": 5125,
      "count": 150,
      "type": "SCALAR"
    },
    {
      "bufferView": 2,
      "byteOffset": 2400,
      "componentType": 5126,
      "count": 806,
      "max": [
        -79.23015594482422,
        187.16482543945313,
        532.9274291992188
      ],
      "min": [
        -188.9051513671875,
        -0.09107589721679688,
        -516.1295166015625
      ],
      "type": "VEC3"
    },
    {
      "bufferView": 2,
      "byteOffset": 12072,
      "componentType": 5126,
      "count": 806,
      "max": [
        1.0,
        1.0,
        1.0
      ],
      "min": [
        -1.0,
        -1.0,
        -1.0
      ],
      "type": "VEC3"
    },
    {
      "bufferView": 1,
      "byteOffset": 800,
      "componentType": 5126,
      "count": 806,
      "max": [
        0.875,
        1.0
      ],
      "min": [
        0.125,
        0.0
      ],
      "type": "VEC2"
    },
    {
      "bufferView": 0,
      "byteOffset": 600,
      "componentType": 5125,
      "count": 1230,
      "type": "SCALAR"
    },
    {
      "bufferView": 2,
      "byteOffset": 21744,
      "componentType": 5126,
      "count": 368,
      "max": [
        37.41041946411133,
        69.0328598022461,
        34.31416320800781
      ],
      "min": [
        -65.1006851196289,
        8.389264106750488,
        -142.96282958984375
      ],
      "type": "VEC3"
    },
    {
      "bufferView": 2,
      "byteOffset": 26160,
      "componentType": 5126,
      "count": 368,
      "max": [
        1.0,
        1.0,
        1.0
      ],
      "min": [
        -1.0,
        -1.0,
        -1.0
      ],
      "type": "VEC3"
    },
    {
      "bufferView": 1,
      "byteOffset": 7248,
      "componentType": 5126,
      "count": 368,
      "max": [
        0.875,
        1.0
      ],
      "min": [
        0.11785700172185898,
        0.0
      ],
      "type": "VEC2"
    },
    {
      "bufferView": 0,
      "byteOffset": 5520,
      "componentType": 5125,
      "count": 1086,
      "type": "SCALAR"
    },
    {
      "bufferView": 2,
      "byteOffset": 30576,
      "componentType": 5126,
      "count": 680,
      "max": [
        32.30441665649414,
        126.53176879882813,
        32.56278610229492
      ],
      "min": [
        -59.994781494140625,
        29.18195343017578,
        -165.40383911132813
      ],
      "type": "VEC3"
    },
    {
      "bufferView": 2,
      "byteOffset": 38736,
      "componentType": 5126,
      "count": 680,
      "max": [
        1.0,
        1.0,
        1.0
      ],
      "min": [
        -1.0,
        -1.0,
        -1.0
      ],
      "type": "VEC3"
    },
    {
      "bufferView": 1,
      "byteOffset": 10192,
      "componentType": 5126,
      "count": 680,
      "max": [
        0.875,
        1.0
      ],
      "min": [
        0.022158000618219376,
        0.0
      ],
      "type": "VEC2"
    },
    {
      "bufferView": 0,
      "byteOffset": 9864,
      "componentType": 5125,
      "count": 1455,
      "type": "SCALAR"
    },
    {
      "bufferView": 2,
      "byteOffset": 46896,
      "componentType": 5126,
      "count": 32,
      "max": [
        29.46851921081543,
        121.92597198486328,
        -37.021820068359375
      ],
      "min": [
        -57.15887451171875,
        80.99636840820313,
        -129.22244262695313
      ],
      "type": "VEC3"
    },
    {
      "bufferView": 2,
      "byteOffset": 47280,
      "componentType": 5126,
      "count": 32,
      "max": [
        0.9873605966567993,
        0.4395570456981659,
        0.8982147574424744
      ],
      "min": [
        -0.9873605966567993,
        0.1584898829460144,
        -0.9230809211730957
      ],
      "type": "VEC3"
    },
    {
      "bufferView": 1,
      "byteOffset": 15632,
      "componentType": 5126,
      "count": 32,
      "max": [
        0.8599849939346313,
        0.688372015953064
      ],
      "min": [
        0.625,
        0.06741999834775925
      ],
      "type": "VEC2"
    },
    {
      "bufferView": 0,
      "byteOffset": 15684,
      "componentType": 5125,
      "count": 48,
      "type": "SCALAR"
    },
    {
      "bufferView": 2,
      "byteOffset": 47664,
      "componentType": 5126,
      "count": 384,
      "max": [
        22.516420364379883,
        71.14505767822266,
        33.71787643432617
      ],
      "min": [
        -50.20668411254883,
        54.38355255126953,
        31.280946731567383
      ],
      "type": "VEC3"
    },
    {
      "bufferView": 2,
      "byteOffset": 52272,
      "componentType": 5126,
      "count": 384,
      "max": [
        0.9951809048652649,
        0.9951807856559753,
        1.0
      ],
      "min": [
        -0.9951869249343872,
        -0.995186448097229,
        -1.0
      ],
      "type": "VEC3"
    },
    {
      "bufferView": 1,
      "byteOffset": 15888,
      "componentType": 5126,
      "count": 384,
      "max": [
        1.0,
        1.0
      ],
      "min": [
        0.0,
        0.009999999776482582
      ],
      "type": "VEC2"
    },
    {
      "bufferView": 0,
      "byteOffset": 15876,
      "componentType": 5125,
      "count": 744,
      "type": "SCALAR"
    },
    {
      "bufferView": 2,
      "byteOffset": 56880,
      "componentType": 5126,
      "count": 48,
      "max": [
        31.31241798400879,
        76.71888732910156,
        -164.56602478027344
      ],
      "min": [
        -57.97138214111328,
        65.82368469238281,
        -166.8986358642578
      ],
      "type": "VEC3"
    },
    {
      "bufferView": 2,
      "byteOffset": 57456,
      "componentType": 5126,
      "count": 48,
      "max": [
        1.0,
        1.0,
        1.0
      ],
      "min": [
        -1.0,
        -1.0,
        -1.0
      ],
      "type": "VEC3"
    },
    {
      "bufferView": 1,
      "byteOffset": 18960,
      "componentType": 5126,
      "count": 48,
      "max": [
        0.875,
        1.0
      ],
      "min": [
        0.125,
        0.0
      ],
      "type": "VEC2"
    },
    {
      "bufferView": 0,
      "byteOffset": 18852,
      "componentType": 5125,
      "count": 72,
      "type": "SCALAR"
    },
    {
      "bufferView": 2,
      "byteOffset": 58032,
      "componentType": 5126,
      "count": 180,
      "max": [
        37.607418060302734,
        47.80085754394531,
        35.80484390258789
      ],
      "min": [
        -64.83118438720703,
        29.52025604248047,
        -169.5626220703125
      ],
      "type": "VEC3"
    },
    {
      "bufferView": 2,
      "byteOffset": 60192,
      "componentType": 5126,
      "count": 180,
      "max": [
        1.0,
        1.0,
        1.0
      ],
      "min": [
        -1.0,
        -1.0,
        -1.0
      ],
      "type": "VEC3"
    },
    {
      "bufferView": 1,
      "byteOffset": 19344,
      "componentType": 5126,
      "count": 180,
      "max": [
        0.75,
        0.875
      ],
      "min": [
        0.25,
        0.375
      ],
      "type": "VEC2"
    },
    {
      "bufferView": 0,
      "byteOffset": 19140,
      "componentType": 5125,
      "count": 312,
      "type": "SCALAR"
    },
    {
      "bufferView": 2,
      "byteOffset": 62352,
      "componentType": 5126,
      "count": 872,
      "max": [
        38.053016662597656,
        47.54447937011719,
        1.2301445007324219
      ],
      "min": [
        -65.74327850341797,
        0.7667630910873413,
        -150.88824462890625
      ],
      "type": "VEC3"
    },
    {
      "bufferView": 2,
      "byteOffset": 72816,
      "componentType": 5126,
      "count": 872,
      "max": [
        1.0,
        1.0,
        1.0
      ],
      "min": [
        -1.0,
        -1.0,
        -1.0
      ],
      "type": "VEC3"
    },
    {
      "bufferView": 1,
      "byteOffset": 20784,
      "componentType": 5126,
      "count": 872,
      "max": [
        1.0,
        1.0
      ],
      "min": [
        0.0,
        0.009999999776482582
      ],
      "type": "VEC2"
    },
    {
      "bufferView": 0,
      "byteOffset": 20388,
      "componentType": 5125,
      "count": 2934,
      "type": "SCALAR"
    },
    {
      "bufferView": 2,
      "byteOffset": 83280,
      "componentType": 5126,
      "count": 92,
      "max": [
        227.239990234375,
        33.42353439331055,
        645.8843994140625
      ],
      "min": [
        -227.239990234375,
        0.0,
        -645.8843994140625
      ],
      "type": "VEC3"
    },
    {
      "bufferView": 2,
      "byteOffset": 84384,
      "componentType": 5126,
      "count": 92,
      "max": [
        1.0,
        1.0,
        1.0
      ],
      "min": [
        -1.0,
        -1.0,
        -1.0
      ],
      "type": "VEC3"
    },
    {
      "bufferView": 1,
      "byteOffset": 27760,
      "componentType": 5126,
      "count": 92,
      "max": [
        1.0,
        1.0
      ],
      "min": [
        0.0,
        0.0
      ],
      "type": "VEC2"
    },
    {
      "bufferView": 0,
      "byteOffset": 32124,
      "componentType": 5125,
      "count": 168,
      "type": "SCALAR"
    },
    {
      "bufferView": 2,
      "byteOffset": 85488,
      "componentType": 5126,
      "count": 100,
      "max": [
        122.95665740966797,
        174.2400360107422,
        522.1346435546875
      ],
      "min": [
        84.13245391845703,
        161.938232421875,
        -505.33709716796875
      ],
      "type": "VEC3"
    },
    {
      "bufferView": 2,
      "byteOffset": 86688,
      "componentType": 5126,
      "count": 100,
      "max": [
        0.8771262764930725,
        -0.2685312032699585,
        0.963270902633667
      ],
      "min": [
        -0.8750448226928711,
        -0.9999977350234985,
        -0.9632705450057983
      ],
      "type": "VEC3"
    },
    {
      "bufferView": 1,
      "byteOffset": 28496,
      "componentType": 5126,
      "count": 100,
      "max": [
        0.625,
        0.4737829864025116
      ],
      "min": [
        0.625,
        0.2762170135974884
      ],
      "type": "VEC2"
    },
    {
      "bufferView": 0,
      "byteOffset": 32796,
      "componentType": 5125,
      "count": 150,
      "type": "SCALAR"
    },
    {
      "bufferView": 2,
      "byteOffset": 87888,
      "componentType": 5126,
      "count": 812,
      "max": [
        190.0874481201172,
        187.16482543945313,
        532.927490234375
      ],
      "min": [
        80.41246032714844,
        -0.09107589721679688,
        -516.1298217773438
      ],
      "type": "VEC3"
    },
    {
      "bufferView": 2,
      "byteOffset": 97632,
      "componentType": 5126,
      "count": 812,
      "max": [
        1.0,
        1.0,
        1.0
      ],
      "min": [
        -1.0,
        -1.0,
        -1.0
      ],
      "type": "VEC3"
    },
    {
      "bufferView": 1,
      "byteOffset": 29296,
      "componentType": 5126,
      "count": 812,
      "max": [
        0.875,
        1.0
      ],
      "min": [
        0.125,
        0.0
      ],
      "type": "VEC2"
    },
    {
      "bufferView": 0,
      "byteOffset": 33396,
      "componentType": 5125,
      "count": 1230,
      "type": "SCALAR"
    }
  ],
  "asset": {
    "extras": {
      "author": "leylamyradova2007 (https://sketchfab.com/leylamyradova2007)",
      "license": "CC-BY-4.0 (http://creativecommons.org/licenses/by/4.0/)",
      "source": "https://sketchfab.com/3d-models/low-poly-car-with-road-and-lights-7b0cc488bfcf4364a7faa1bc16ec3322",
      "title": "Low Poly Car with road and lights"
    },
    "generator": "Sketchfab-12.68.0",
    "version": "2.0"
  },
  "bufferViews": [
    {
      "buffer": 0,
      "byteLength": 38316,
      "name": "floatBufferViews",
      "target": 34963
    },
    {
      "buffer": 0,
      "byteLength": 35792,
      "byteOffset": 38316,
      "byteStride": 8,
      "name": "floatBufferViews",
      "target": 34962
    },
    {
      "buffer": 0,
      "byteLength": 107376,
      "byteOffset": 74108,
      "byteStride": 12,
      "name": "floatBufferViews",
      "target": 34962
    }
  ],
  "buffers": [
    {
      "byteLength": 181484,
      "uri": "scene.bin"
    }
  ],
  "materials": [
    {
      "doubleSided": true,
      "emissiveFactor": [
        1.0,
        1.0,
        0.14008099999999996
      ],
      "name": "Material.059",
      "pbrMetallicRoughness": {
        "baseColorFactor": [
          0.8,
          0.8,
          0.8,
          1.0
        ],
        "metallicFactor": 0.0,
        "roughnessFactor": 0.8211145618000169
      }
    },
    {
      "doubleSided": true,
      "name": "Material.027",
      "pbrMetallicRoughness": {
        "baseColorFactor": [
          0.263756,
          0.263756,
          0.263756,
          1.0
        ],
        "metallicFactor": 0.0,
        "roughnessFactor": 0.9410223654526565
      }
    },
    {
      "doubleSided": true,
      "name": "Material.077",
      "pbrMetallicRoughness": {
        "baseColorFactor": [
          0.8,
          0.8,
          0.8,
          1.0
        ],
        "metallicFactor": 0.0,
        "roughnessFactor": 0.8211145618000169
      }
    },
    {
      "doubleSided": true,
      "name": "Material.035",
      "pbrMetallicRoughness": {
        "baseColorFactor": [
          0.7999999999999999,
          0.00030600000000000305,
          0.01335700000000007,
          1.0
        ],
        "metallicFactor": 0.0,
        "roughnessFactor": 0.9561838625450702
      }
    },
    {
      "doubleSided": true,
      "name": "Material.079",
      "pbrMetallicRoughness": {
        "baseColorFactor": [
          0.006522,
          0.006644,
          0.027918,
          1.0
        ],
        "metallicFactor": 0.0,
        "roughnessFactor": 0.9978708443209459
      }
    },
    {
      "doubleSided": true,
      "emissiveFactor": [
        1.0,
        1.0,
        0.067855
      ],
      "name": "Material.080",
      "pbrMetallicRoughness": {
        "baseColorFactor": [
          0.8,
          0.65155,
          0.083614,
          1.0
        ],
        "metallicFactor": 0.0,
        "roughnessFactor": 0.8564208473845334
      }
    },
    {
      "doubleSided": true,
      "emissiveFactor": [
        1.0,
        0.149482,
        0.095456
      ],
      "name": "Material.081",
      "pbrMetallicRoughness": {
        "baseColorFactor": [
          0.8,
          0.048868,
          0.029038,
          1.0
        ],
        "metallicFactor": 0.0,
        "roughnessFactor": 0.953685008844947
      }
    },
    {
      "doubleSided": true,
      "name": "Material.049",
      "pbrMetallicRoughness": {
        "baseColorFactor": [
          0.137892,
          0.031672,
          0.014425,
          1.0
        ],
        "metallicFactor": 0.0,
        "roughnessFactor": 0.9881467962661692
      }
    },
    {
      "doubleSided": true,
      "name": "Material.026",
      "pbrMetallicRoughness": {
        "baseColorFactor": [
          0.0,
          0.0,
          0.0,
          1.0
        ],
        "metallicFactor": 0.0
      }
    },
    {
      "doubleSided": true,
      "name": "Material.107",
      "pbrMetallicRoughness": {
        "baseColorFactor": [
          0.021928,
          0.021928,
          0.021928,
          1.0
        ],
        "metallicFactor": 0.0,
        "roughnessFactor": 0.9944481623588248
      }
    }
  ],
  "meshes": [
    {
      "name": "Cube.061_Cube.038_Material.059_0",
      "primitives": [
        {
          "attributes": {
            "NORMAL": 1,
            "POSITION": 0,
            "TEXCOORD_0": 2
          },
          "indices": 3,
          "material": 0,
          "mode": 4
        }
      ]
    },
    {
      "name": "Cube.061_Cube.038_Material.027_0",
      "primitives": [
        {
          "attributes": {
            "NORMAL": 5,
            "POSITION": 4,
            "TEXCOORD_0": 6
          },
          "indices": 7,
          "material": 1,
          "mode": 4
        }
      ]
    },
    {
      "name": "Cylinder.001_Cylinder.005_Material.077_0",
      "primitives": [
        {
          "attributes": {
            "NORMAL": 9,
            "POSITION": 8,
            "TEXCOORD_0": 10
          },
          "indices": 11,
          "material": 2,
          "mode": 4
        }
      ]
    },
    {
      "name": "Cylinder.001_Cylinder.005_Material.035_0",
      "primitives": [
        {
          "attributes": {
            "NORMAL": 13,
            "POSITION": 12,
            "TEXCOORD_0": 14
          },
          "indices": 15,
          "material": 3,
          "mode": 4
        }
      ]
    },
    {
      "name": "Cylinder.001_Cylinder.005_Material.079_0",
      "primitives": [
        {
          "attributes": {
            "NORMAL": 17,
            "POSITION": 16,
            "TEXCOORD_0": 18
          },
          "indices": 19,
          "material": 4,
          "mode": 4
        }
      ]
    },
    {
      "name": "Cylinder.001_Cylinder.005_Material.080_0",
      "primitives": [
        {
          "attributes": {
            "NORMAL": 21,
            "POSITION": 20,
            "TEXCOORD_0": 22
          },
          "indices": 23,
          "material": 5,
          "mode": 4
        }
      ]
    },
    {
      "name": "Cylinder.001_Cylinder.005_Material.081_0",
      "primitives": [
        {
          "attributes": {
            "NORMAL": 25,
            "POSITION": 24,
            "TEXCOORD_0": 26
          },
          "indices": 27,
          "material": 6,
          "mode": 4
        }
      ]
    },
    {
      "name": "Cylinder.001_Cylinder.005_Material.049_0",
      "primitives": [
        {
          "attributes": {
            "NORMAL": 29,
            "POSITION": 28,
            "TEXCOORD_0": 30
          },
          "indices": 31,
          "material": 7,
          "mode": 4
        }
      ]
    },
    {
      "name": "Cylinder.001_Cylinder.005_Material.026_0",
      "primitives": [
        {
          "attributes": {
            "NORMAL": 33,
            "POSITION": 32,
            "TEXCOORD_0": 34
          },
          "indices": 35,
          "material": 8,
          "mode": 4
        }
      ]
    },
    {
      "name": "Plane_Material.107_0",
      "primitives": [
        {
          "attributes": {
            "NORMAL": 37,
            "POSITION": 36,
            "TEXCOORD_0": 38
          },
          "indices": 39,
          "material": 9,
          "mode": 4
        }
      ]
    },
    {
      "name": "Cube.061_Cube.001_Material.059_0",
      "primitives": [
        {
          "attributes": {
            "NORMAL": 41,
            "POSITION": 40,
            "TEXCOORD_0": 42
          },
          "indices": 43,
          "material": 0,
          "mode": 4
        }
      ]
    },
    {
      "name": "Cube.061_Cube.001_Material.027_0",
      "primitives": [
        {
          "attributes": {
            "NORMAL": 45,
            "POSITION": 44,
            "TEXCOORD_0": 46
          },
          "indices": 47,
          "material": 1,
          "mode": 4
        }
      ]
    }
  ],
  "nodes": [
    {
      "children": [
        1
      ],
      "matrix": [
        1.1189450025558472,
        0.0,
        0.0,
        0.0,
        0.0,
        4.283957782709064e-16,
        -1.1189450025558472,
        0.0,
        0.0,
        1.1189450025558472,
        4.283957782709064e-16,
        0.0,
        0.0,
        3.3399462049235754e-32,
        -1.5041780483931316e-16,
        1.0
      ],
      "name": "Sketchfab_model"
    },
    {
      "children": [
        2
      ],
      "matrix": [
        0.009999999776482582,
        0.0,
        0.0,
        0.0,
        0.0,
        0.0,
        0.009999999776482582,
        0.0,
        0.0,
        -0.009999999776482582,
        0.0,
        0.0,
        0.0,
        0.0,
        0.0,
        1.0
      ],
      "name": "79ea7974888542209671c296aa3a2186.fbx"
    },
    {
      "children": [
        3,
        6,
        14,
        16
      ],
      "name": "RootNode"
    },
    {
      "children": [
        4,
        5
      ],
      "name": "Cube.061_Cube.038"
    },
    {
      "mesh": 0,
      "name": "Cube.061_Cube.038_Material.059_0"
    },
    {
      "mesh": 1,
      "name": "Cube.061_Cube.038_Material.027_0"
    },
    {
      "children": [
        7,
        8,
        9,
        10,
        11,
        12,
        13
      ],
      "name": "Cylinder.001_Cylinder.005"
    },
    {
      "mesh": 2,
      "name": "Cylinder.001_Cylinder.005_Material.077_0"
    },
    {
      "mesh": 3,
      "name": "Cylinder.001_Cylinder.005_Material.035_0"
    },
    {
      "mesh": 4,
      "name": "Cylinder.001_Cylinder.005_Material.079_0"
    },
    {
      "mesh": 5,
      "name": "Cylinder.001_Cylinder.005_Material.080_0"
    },
    {
      "mesh": 6,
      "name": "Cylinder.001_Cylinder.005_Material.081_0"
    },
    {
      "mesh": 7,
      "name": "Cylinder.001_Cylinder.005_Material.049_0"
    },
    {
      "mesh": 8,
      "name": "Cylinder.001_Cylinder.005_Material.026_0"
    },
    {
      "children": [
        15
      ],
      "name": "Plane"
    },
    {
      "mesh": 9,
      "name": "Plane_Material.107_0"
    },
    {
      "children": [
        17,
        18
      ],
      "name": "Cube.061_Cube.001"
    },
    {
      "mesh": 10,
      "name": "Cube.061_Cube.001_Material.059_0"
    },
    {
      "mesh": 11,
      "name": "Cube.061_Cube.001_Material.027_0"
    }
  ],
  "scene": 0,
  "scenes": [
    {
      "name": "Sketchfab_Scene",
      "nodes": [
        0
      ]
    }
  ]
}
